<svg width="51" height="51" viewBox="0 0 51 51" fill="none" xmlns="http://www.w3.org/2000/svg">
<path d="M42.4022 40.9078L33.2501 25.5017L42.4022 10.0888L46.8201 25.4983L42.4005 40.9044L42.4022 40.9078ZM22.0063 39.4284L10.4972 28.0065H28.793L37.9418 43.4143L22.0046 39.4318L22.0063 39.4284ZM22.0063 11.5716L37.9418 7.58912L28.7947 22.9969H10.4955L22.0063 11.5716ZM51 20.2575L45.4189 0L24.586 5.42955L21.5047 10.7214L15.2468 10.6754L0 25.5017L15.2485 40.3297L21.5029 40.2803L24.5928 45.5722L45.4172 51L51 30.751L47.8303 25.5017L51 20.2575Z" fill="white"/>
</svg>
