<svg width="51" height="51" viewBox="0 0 51 51" fill="none" xmlns="http://www.w3.org/2000/svg">
<mask id="mask0_29_16" style="mask-type:luminance" maskUnits="userSpaceOnUse" x="0" y="0" width="51" height="51">
<path d="M51 0H0V51H51V0Z" fill="white"/>
</mask>
<g mask="url(#mask0_29_16)">
<path d="M46.75 0H4.25C1.90279 0 0 1.90279 0 4.25V46.75C0 49.0973 1.90279 51 4.25 51H46.75C49.0973 51 51 49.0973 51 46.75V4.25C51 1.90279 49.0973 0 46.75 0Z" fill="url(#paint0_linear_29_16)"/>
<path d="M12.3817 39.338L12.6041 40.8757L12.9338 39.4876L15.2423 31.3467H16.5384L18.7893 39.4876L19.1113 40.8988L19.3606 39.3265L21.1705 31.3467H22.7158L19.8859 43.0117H18.4825L16.0782 34.5104L15.8941 33.6207L15.7101 34.5104L13.2176 43.0117H11.8141L8.99573 31.3467H10.5334L12.3778 39.3342L12.3817 39.338Z" fill="white"/>
<path d="M25.9599 38.4485V43.0155H24.4222V31.3505H28.7247C30.0016 31.3505 31.0025 31.6765 31.7233 32.3285C32.4482 32.9804 32.8086 33.8431 32.8086 34.9167C32.8086 36.048 32.4558 36.9223 31.7463 37.5319C31.0369 38.1454 30.0246 38.4485 28.7056 38.4485H25.9561H25.9599ZM25.9599 37.1907H28.7247C29.5452 37.1907 30.178 36.9952 30.6151 36.6078C31.0522 36.2206 31.2709 35.6607 31.2709 34.9284C31.2709 34.2342 31.0522 33.6782 30.6151 33.2603C30.178 32.8423 29.576 32.6274 28.8129 32.6083H25.9599V37.1907Z" fill="white"/>
<path d="M41.2064 37.8656H36.3095V43.0155H34.7719V31.3505H42V32.6083H36.3133V36.6078H41.2102V37.8656H41.2064Z" fill="white"/>
<path d="M9.488 24.378H9.46767C8.12216 24.378 6.78883 24.0569 5.61402 23.4594L5.00427 23.1504L13.675 10.065C15.0042 8.06098 17.366 6.7927 19.9879 6.6748C20.057 6.6748 20.1343 6.67075 20.2115 6.66669C20.2644 6.66669 20.3416 6.66669 20.4148 6.66669C20.4961 6.66669 20.5774 6.66669 20.6587 6.67075L20.8904 6.67886C23.6872 6.82521 25.8579 8.01219 27.1911 10.1098C28.5082 12.4553 32.3538 18.6626 34.5285 19.5691C35.7317 20.0731 37.2317 20.3414 37.2441 20.3455L37.0326 21.5447C36.9676 21.5324 35.3902 21.2479 34.057 20.6951C31.1018 19.4634 26.6424 11.6219 26.1424 10.7317C24.7563 8.54878 22.4921 7.98374 20.8416 7.89432H20.6262C20.5367 7.88618 20.4514 7.88212 20.3619 7.88212C20.3294 7.88212 20.2969 7.88212 20.2644 7.88212C20.1749 7.88212 20.1099 7.88618 20.0449 7.89024C17.8457 7.99188 15.8782 9.01626 14.7522 10.6423C15.0977 10.5691 15.4839 10.5163 15.9107 10.5C19.0977 10.3618 20.8375 13.1179 20.9107 13.2358L21.1912 13.687L20.8497 13.9715L16.2075 20.9715C14.8132 23.069 12.24 24.374 9.488 24.374V24.378ZM6.79288 22.6544C7.63434 22.9836 8.54899 23.1544 9.46767 23.1585H9.488C11.8376 23.1585 14.0205 22.0649 15.1912 20.3048L19.6506 13.5813C19.1546 12.9675 17.8741 11.6504 15.9636 11.7236C14.801 11.7723 14.0449 12.1138 13.614 12.3902L13.6059 12.378L6.79288 22.6544Z" fill="white"/>
<path d="M31.5163 25.3536C28.2277 25.3536 26.6424 23.382 25.4675 21.9268L25.2319 21.634C25.1303 21.5122 24.9514 21.2723 24.7238 20.9633C23.8049 19.7195 20.0489 14.1341 19.8904 13.8983L20.9026 13.2195C20.9432 13.2764 24.8009 19.0162 25.7074 20.2398C25.9189 20.5243 26.0855 20.7479 26.179 20.8617L26.4189 21.1585C27.5976 22.6179 28.9391 24.2724 31.8944 24.1219C33.7846 24.0244 35.4147 22.5445 36.3131 21.1951L44.2073 9.28454C43.366 8.95527 42.4512 8.78453 41.5285 8.78047H41.5121C39.4513 8.78047 37.5813 9.89835 35.6301 12.3048C35.0001 13.0813 34.4431 14.0569 33.9065 14.9959C33.305 16.0528 32.683 17.1422 31.9269 18.0162L31.0042 17.2195C31.6829 16.4349 32.248 15.443 32.8496 14.3902C33.4106 13.4065 33.992 12.3861 34.6871 11.5325C36.8577 8.85771 39.0935 7.56097 41.5164 7.56097H41.5325C42.8781 7.56097 44.2113 7.8821 45.3903 8.47965L45.9999 8.78861L37.3293 21.8699C35.9553 23.943 33.9471 25.2397 31.9594 25.3415C31.809 25.3495 31.6628 25.3536 31.5204 25.3536H31.5163Z" fill="white"/>
</g>
<defs>
<linearGradient id="paint0_linear_29_16" x1="0.935" y1="0.0212504" x2="48.994" y2="49.8653" gradientUnits="userSpaceOnUse">
<stop stop-color="#0088CC"/>
<stop offset="0.63" stop-color="#0D6EB2"/>
<stop offset="1" stop-color="#175EA1"/>
</linearGradient>
</defs>
</svg>
